<?xml version="1.0" encoding="iso-8859-1"?>
<!-- Generator: Adobe Illustrator 19.0.0, SVG Export Plug-In . SVG Version: 6.00 Build 0)  -->
<svg version="1.1" id="Layer_1" xmlns="http://www.w3.org/2000/svg" xmlns:xlink="http://www.w3.org/1999/xlink" x="0px" y="0px"
	 viewBox="0 0 512 512" style="enable-background:new 0 0 512 512;" xml:space="preserve">
<path style="fill:#9E9E9E;" d="M299.13,500.87H68.916c-14.805,0-26.805-12.001-26.805-26.805V37.936
	C42.11,23.131,54.112,11.13,68.916,11.13H299.13c14.805,0,26.805,12.001,26.805,26.805v436.127
	C325.936,488.869,313.935,500.87,299.13,500.87z"/>
<rect x="42.11" y="102.4" style="fill:#ECF0F1;" width="283.826" height="311.652"/>
<polygon style="fill:#FFC107;" points="151.56,258.226 247.282,369.53 247.282,322.226 469.89,322.226 469.89,194.226 
	247.282,194.226 247.282,146.922 "/>
<g>
	<path style="fill:#231F20;" d="M163.617,68.638h40.812c6.146,0,11.13-4.984,11.13-11.13s-4.984-11.13-11.13-11.13h-40.812
		c-6.146,0-11.13,4.984-11.13,11.13S157.47,68.638,163.617,68.638z"/>
	<path style="fill:#231F20;" d="M185.692,445.217h-3.339c-6.146,0-11.13,4.984-11.13,11.13s4.984,11.13,11.13,11.13h3.339
		c6.146,0,11.13-4.984,11.13-11.13S191.84,445.217,185.692,445.217z"/>
	<path style="fill:#231F20;" d="M469.89,183.096H337.066V37.936C337.066,17.018,320.048,0,299.13,0H68.916
		C47.999,0,30.979,17.018,30.979,37.936v436.128c0,20.917,17.018,37.936,37.936,37.936H299.13c20.919,0,37.937-17.018,37.937-37.936
		V333.357H469.89c6.146,0,11.13-4.984,11.13-11.13v-128C481.021,188.08,476.036,183.096,469.89,183.096z M68.916,22.261H299.13
		c8.644,0,15.676,7.031,15.676,15.675V91.27H53.241V37.936C53.24,29.292,60.272,22.261,68.916,22.261z M299.13,489.739H68.916
		c-8.644,0-15.675-7.031-15.675-15.675v-48.882h261.565v48.882C314.805,482.708,307.773,489.739,299.13,489.739z M314.805,402.922
		H53.24V113.53h32.835v77.913c0,6.146,4.984,11.13,11.13,11.13s11.13-4.984,11.13-11.13V113.53h206.47v69.565h-56.395v-36.174
		c0-4.655-2.896-8.818-7.259-10.436c-4.366-1.618-9.274-0.351-12.31,3.178L143.12,250.968c-3.588,4.173-3.588,10.342,0,14.515
		l95.722,111.304c2.157,2.508,5.26,3.872,8.441,3.872c1.296,0,2.606-0.226,3.869-0.695c4.364-1.618,7.259-5.781,7.259-10.436
		v-36.174h56.395V402.922z M458.76,311.096H247.282c-6.146,0-11.13,4.984-11.13,11.13v17.291l-69.911-81.291l69.911-81.291v17.291
		c0,6.146,4.984,11.13,11.13,11.13H458.76V311.096z"/>
	<path style="fill:#231F20;" d="M97.205,224.835c-6.146,0-11.13,4.984-11.13,11.13v6.34c0,6.146,4.984,11.13,11.13,11.13
		c6.146,0,11.13-4.984,11.13-11.13v-6.34C108.336,229.819,103.353,224.835,97.205,224.835z"/>
	<path style="fill:#231F20;" d="M305.345,269.357h63.073c6.146,0,11.13-4.984,11.13-11.13c0-6.146-4.984-11.13-11.13-11.13h-63.072
		c-6.146,0-11.13,4.984-11.13,11.13C294.215,264.372,299.198,269.357,305.345,269.357z"/>
	<path style="fill:#231F20;" d="M412.197,269.357h10.388c6.146,0,11.13-4.984,11.13-11.13c0-6.146-4.984-11.13-11.13-11.13h-10.388
		c-6.146,0-11.13,4.984-11.13,11.13C401.066,264.372,406.051,269.357,412.197,269.357z"/>
</g>
<g>
</g>
<g>
</g>
<g>
</g>
<g>
</g>
<g>
</g>
<g>
</g>
<g>
</g>
<g>
</g>
<g>
</g>
<g>
</g>
<g>
</g>
<g>
</g>
<g>
</g>
<g>
</g>
<g>
</g>
</svg>
