<?xml version="1.0" encoding="iso-8859-1"?>
<!-- Generator: Adobe Illustrator 19.0.0, SVG Export Plug-In . SVG Version: 6.00 Build 0)  -->
<svg version="1.1" id="Layer_1" xmlns="http://www.w3.org/2000/svg" xmlns:xlink="http://www.w3.org/1999/xlink" x="0px" y="0px"
	 viewBox="0 0 504.32 504.32" style="enable-background:new 0 0 504.32 504.32;" xml:space="preserve">
<g transform="translate(1 1)">
	<path style="fill:#FFD0A1;" d="M319,404.333V421.4c0,4.267-3.413,8.533-8.533,8.533c0,17.067-8.533,34.133-8.533,34.133
		c-8.533,17.067-17.92,34.133-51.2,34.133s-42.667-17.067-51.2-34.133c0,0-8.533-17.067-8.533-34.133
		c-5.12,0-8.533-4.267-8.533-8.533v-17.067c0-4.267,3.413-8.533,8.533-8.533v-8.533c0-23.893,18.773-42.667,42.667-42.667H267.8
		c23.893,0,42.667,18.773,42.667,42.667v8.533C315.586,395.8,319,400.067,319,404.333z M498.2,404.333V421.4
		c0,4.267-3.413,8.533-8.533,8.533c0,17.067-8.533,34.133-8.533,34.133c-8.533,17.067-17.92,34.133-51.2,34.133
		s-42.667-17.067-51.2-34.133c0,0-8.533-17.067-8.533-34.133c-5.12,0-8.533-4.267-8.533-8.533v-17.067
		c0-4.267,3.413-8.533,8.533-8.533v-8.533c0-23.893,18.773-42.667,42.667-42.667H447c23.893,0,42.667,18.773,42.667,42.667v8.533
		C494.786,395.8,498.2,400.067,498.2,404.333z M139.8,404.333V421.4c0,4.267-4.267,8.533-8.533,8.533
		c0,17.067-8.533,34.133-8.533,34.133c-8.533,17.067-17.92,34.133-51.2,34.133s-42.667-17.067-51.2-34.133
		c0,0-8.533-17.067-8.533-34.133c-4.267,0-8.533-4.267-8.533-8.533v-17.067c0-4.267,4.267-8.533,8.533-8.533v-8.533
		c0-23.893,18.773-42.667,42.667-42.667H88.6c23.893,0,42.667,18.773,42.667,42.667v8.533
		C135.533,395.8,139.8,400.067,139.8,404.333z"/>
	<path style="fill:#ECF4F7;" d="M216.6,276.333h-85.333l-34.133,34.133L63,276.333H37.4c-19.627,0-34.133-17.92-34.133-34.133V37.4
		c0-18.773,15.36-34.133,34.133-34.133h426.667c18.773,0,34.133,15.36,34.133,34.133v204.8c0,18.773-15.36,34.133-34.133,34.133
		h-25.6l-34.133,34.133L370.2,276.333h-85.333l-34.133,34.133L216.6,276.333z"/>
</g>
<path style="fill:#51565F;" d="M430.933,503.467c-36.693,0-46.933-21.333-54.613-36.693c0-0.853-7.68-16.213-8.533-32.427
	c-5.12-1.707-8.533-6.827-8.533-11.947v-17.067c0-5.973,3.413-10.24,8.533-11.947v-5.12c0-25.6,21.333-46.933,46.933-46.933h34.133
	c25.6,0,46.933,21.333,46.933,46.933v5.12c5.12,1.707,8.533,6.827,8.533,11.947V422.4c0,5.973-3.413,10.24-8.533,11.947
	c-0.853,16.213-8.533,31.573-8.533,32.427C477.866,482.133,467.626,503.467,430.933,503.467z M413.866,349.867
	c-21.333,0-38.4,17.067-38.4,38.4v8.533c0,2.56-1.707,4.267-4.267,4.267s-4.267,1.707-4.267,4.267V422.4
	c0,2.56,1.707,4.267,4.267,4.267c0.853,0,2.56,0.853,3.413,0.853c0.853,0,0.853,1.707,0.853,3.413c0,16.213,7.68,32.427,7.68,32.427
	c9.387,18.773,17.92,31.573,47.787,31.573s38.4-12.8,47.787-31.573c0,0,7.68-16.213,7.68-32.427c0-2.56,1.707-4.267,4.267-4.267
	s4.267-1.707,4.267-4.267v-17.067c0-2.56-1.707-4.267-4.267-4.267s-4.267-1.707-4.267-4.267v-8.533c0-21.333-17.067-38.4-38.4-38.4
	H413.866z M251.733,503.467c-36.693,0-46.933-21.333-54.613-36.693c0-0.853-7.68-16.213-8.533-32.427
	c-5.12-1.707-8.533-6.827-8.533-11.947v-17.067c0-5.973,3.413-10.24,8.533-11.947v-5.12c0-25.6,21.333-46.933,46.933-46.933h34.133
	c25.6,0,46.933,21.333,46.933,46.933v5.12c5.12,1.707,8.533,6.827,8.533,11.947V422.4c0,5.973-3.413,10.24-8.533,11.947
	c-0.853,16.213-8.533,31.573-8.533,32.427C298.666,482.133,288.426,503.467,251.733,503.467z M234.666,349.867
	c-21.333,0-38.4,17.067-38.4,38.4v8.533c0,2.56-1.707,4.267-4.267,4.267c-2.56,0-4.267,1.707-4.267,4.267V422.4
	c0,2.56,1.707,4.267,4.267,4.267c2.56,0,4.267,1.707,4.267,4.267c0,16.213,7.68,32.427,7.68,32.427
	c9.387,18.773,17.92,31.573,47.787,31.573c29.013,0,38.4-12.8,47.787-31.573c0,0,7.68-16.213,7.68-32.427
	c0-2.56,1.707-4.267,4.267-4.267s4.267-1.707,4.267-4.267v-17.067c0-2.56-1.707-4.267-4.267-4.267s-4.267-1.707-4.267-4.267v-8.533
	c0-21.333-17.067-38.4-38.4-38.4H234.666z M72.533,503.467c-36.693,0-46.933-21.333-54.613-36.693c0-0.853-7.68-16.213-8.533-32.427
	c-5.12-1.707-8.533-6.827-8.533-11.947v-17.067c0-5.973,3.413-10.24,8.533-11.947v-5.12c0-25.6,21.333-46.933,46.933-46.933h34.133
	c25.6,0,46.933,21.333,46.933,46.933v5.12c5.12,1.707,8.533,6.827,8.533,11.947V422.4c0,5.973-3.413,10.24-8.533,11.947
	c-0.853,16.213-8.533,31.573-8.533,32.427C119.466,482.133,109.226,503.467,72.533,503.467z M55.466,349.867
	c-21.333,0-38.4,17.067-38.4,38.4v8.533c0,2.56-1.707,4.267-4.267,4.267s-4.267,1.707-4.267,4.267V422.4
	c0,2.56,1.707,4.267,4.267,4.267s4.267,1.707,4.267,4.267c0,16.213,7.68,32.427,7.68,32.427
	c9.387,18.773,17.92,31.573,47.787,31.573s38.4-12.8,47.787-31.573c0,0,7.68-16.213,7.68-32.427c0-2.56,1.707-4.267,4.267-4.267
	c2.56,0,4.267-1.707,4.267-4.267v-17.067c0-2.56-1.707-4.267-4.267-4.267c-2.56,0-4.267-1.707-4.267-4.267v-8.533
	c0-21.333-17.067-38.4-38.4-38.4H55.466z M456.533,418.133H448c-2.56,0-4.267-1.707-4.267-4.267c0-2.56,1.707-4.267,4.267-4.267
	h8.533c2.56,0,4.267,1.707,4.267,4.267C460.8,416.427,459.093,418.133,456.533,418.133z M413.866,418.133h-8.533
	c-2.56,0-4.267-1.707-4.267-4.267c0-2.56,1.707-4.267,4.267-4.267h8.533c2.56,0,4.267,1.707,4.267,4.267
	C418.133,416.427,416.426,418.133,413.866,418.133z M277.333,418.133H268.8c-2.56,0-4.267-1.707-4.267-4.267
	c0-2.56,1.707-4.267,4.267-4.267h8.533c2.56,0,4.267,1.707,4.267,4.267C281.6,416.427,279.893,418.133,277.333,418.133z
	 M234.666,418.133h-8.533c-2.56,0-4.267-1.707-4.267-4.267c0-2.56,1.707-4.267,4.267-4.267h8.533c2.56,0,4.267,1.707,4.267,4.267
	C238.933,416.427,237.226,418.133,234.666,418.133z M98.133,418.133H89.6c-2.56,0-4.267-1.707-4.267-4.267
	c0-2.56,1.707-4.267,4.267-4.267h8.533c2.56,0,4.267,1.707,4.267,4.267C102.4,416.427,100.693,418.133,98.133,418.133z
	 M55.466,418.133h-8.533c-2.56,0-4.267-1.707-4.267-4.267c0-2.56,1.707-4.267,4.267-4.267h8.533c2.56,0,4.267,1.707,4.267,4.267
	C59.733,416.427,58.026,418.133,55.466,418.133z M405.333,315.733c-0.853,0-2.56,0-3.413-0.853l-42.667-42.667
	c-1.707-1.707-1.707-4.267,0-5.973c1.707-1.707,4.267-1.707,5.973,0l39.253,39.253l30.72-30.72c0.853-0.853,1.707-0.853,3.413-0.853
	h25.6c16.213,0,29.867-13.653,29.867-29.867v-204.8c0-16.213-13.653-29.867-29.867-29.867H37.547
	C21.333,9.386,7.68,23.04,7.68,39.253v204.8c0,13.653,9.387,25.6,22.187,29.013c2.56,0.853,3.413,2.56,3.413,5.12
	c-0.853,2.56-2.56,3.413-5.12,3.413C11.093,277.333,0,261.973,0,244.053v-204.8c0-21.333,17.067-38.4,38.4-38.4h426.667
	c21.333,0,38.4,17.067,38.4,38.4v204.8c0,21.333-17.067,38.4-38.4,38.4h-23.893l-33.28,33.28
	C407.893,315.733,406.186,315.733,405.333,315.733z M251.733,315.733c-0.853,0-2.56,0-3.413-0.853l-42.667-42.667
	c-1.707-1.707-1.707-4.267,0-5.973c1.707-1.707,4.267-1.707,5.973,0l39.253,39.253l30.72-30.72c0.853-0.853,1.707-0.853,3.413-0.853
	h51.2c2.56,0,4.267,1.707,4.267,4.267c0,2.56-1.707,4.267-4.267,4.267H286.72l-33.28,33.28
	C254.293,315.733,252.586,315.733,251.733,315.733z M98.133,315.733c-0.853,0-2.56,0-3.413-0.853l-42.667-42.667
	c-1.707-1.707-1.707-4.267,0-5.973c1.707-1.707,4.267-1.707,5.973,0l39.253,39.253l30.72-30.72c0.853-0.853,1.707-0.853,3.413-0.853
	h51.2c2.56,0,4.267,1.707,4.267,4.267c0,2.56-1.707,4.267-4.267,4.267H133.12l-33.28,33.28
	C100.693,315.733,98.986,315.733,98.133,315.733z M354.133,196.267H209.066c-2.56,0-4.267-1.707-4.267-4.267
	c0-2.56,1.707-4.267,4.267-4.267h145.067c2.56,0,4.267,1.707,4.267,4.267C358.4,194.56,356.693,196.267,354.133,196.267z
	 M174.933,196.267H89.6c-2.56,0-4.267-1.707-4.267-4.267c0-2.56,1.707-4.267,4.267-4.267h85.333c2.56,0,4.267,1.707,4.267,4.267
	C179.2,194.56,177.493,196.267,174.933,196.267z M413.866,145.067h-85.333c-2.56,0-4.267-1.707-4.267-4.267
	c0-2.56,1.707-4.267,4.267-4.267h85.333c2.56,0,4.267,1.707,4.267,4.267C418.133,143.36,416.426,145.067,413.866,145.067z
	 M294.4,145.067h-68.267c-2.56,0-4.267-1.707-4.267-4.267c0-2.56,1.707-4.267,4.267-4.267H294.4c2.56,0,4.267,1.707,4.267,4.267
	C298.666,143.36,296.96,145.067,294.4,145.067z M192,145.067H89.6c-2.56,0-4.267-1.707-4.267-4.267c0-2.56,1.707-4.267,4.267-4.267
	H192c2.56,0,4.267,1.707,4.267,4.267C196.266,143.36,194.56,145.067,192,145.067z M396.8,93.867h-68.267
	c-2.56,0-4.267-1.707-4.267-4.267c0-2.56,1.707-4.267,4.267-4.267H396.8c2.56,0,4.267,1.707,4.267,4.267
	C401.066,92.16,399.36,93.867,396.8,93.867z M294.4,93.867H89.6c-2.56,0-4.267-1.707-4.267-4.267c0-2.56,1.707-4.267,4.267-4.267
	h204.8c2.56,0,4.267,1.707,4.267,4.267C298.666,92.16,296.96,93.867,294.4,93.867z"/>
<g>
</g>
<g>
</g>
<g>
</g>
<g>
</g>
<g>
</g>
<g>
</g>
<g>
</g>
<g>
</g>
<g>
</g>
<g>
</g>
<g>
</g>
<g>
</g>
<g>
</g>
<g>
</g>
<g>
</g>
</svg>
