<?xml version="1.0" encoding="iso-8859-1"?>
<!-- Generator: Adobe Illustrator 19.0.0, SVG Export Plug-In . SVG Version: 6.00 Build 0)  -->
<svg version="1.1" id="Layer_1" xmlns="http://www.w3.org/2000/svg" xmlns:xlink="http://www.w3.org/1999/xlink" x="0px" y="0px"
	 viewBox="0 0 512 512" style="enable-background:new 0 0 512 512;" xml:space="preserve">
<path style="fill:#E2E2E2;" d="M256,512c141.392,0,256-114.608,256-256S397.392,0,256,0S0,114.608,0,256S114.608,512,256,512z"/>
<path style="fill:#FFFFFF;" d="M85.12,287.776l15.52,11.744l-8.288,17.616l-21.44,45.568l54.912,6.304l20.032,2.304l1.184,20.128
	l3.008,51.152l50.16-23.76l17.664-8.368l11.776,15.616l33.52,44.448l29.312-44.032l11.616-17.456l18.864,9.168l43.904,21.344
	l3.968-54.224l1.584-21.712l21.76-0.528l52.304-1.28l-18.32-41.584l-7.152-16.24l13.44-11.6l40.192-34.688L429.2,220.88l-16-12.96
	l10.368-17.776l23.728-40.656l-52.96-4.208l-20.368-1.616l-1.664-20.368l-4.464-54.832l-45.776,21.84l-17.456,8.32l-11.84-15.28
	L259.44,40.32l-30.816,43.584l-12.16,17.2l-18.64-9.824l-46.016-24.288l-2.56,54.032l-1.04,21.776l-21.792,1.056l-56.816,2.72
	l21.92,55.472l7.392,18.704l-17.12,10.544l-39.296,24.208L85.12,287.776z M288.416,202.432l19.36,40.16
	c5.168,10.784,10.32,22.128,14.144,31.024l0.288-0.064c-0.912-10.208-1.04-21.936-1.312-34.352l-0.368-44.72l17.872-4.432
	l19.904,40.624c5.104,10.48,9.6,20.384,13.504,30.144l0.288-0.064c-0.88-10.656-1.312-21.872-1.632-33.84l-0.768-44.624L386.992,178
	l-1.936,99.504l-18.272,4.528L346.24,240.56c-4.992-10.08-8.864-18.528-12.464-28.352l-0.272,0.064
	c0.8,10.384,1.232,19.808,1.104,31.168l0.08,46.56l-18.4,4.56l-45.968-87.648L288.416,202.432z M257.952,209.984l3.472,13.984
	l-37.232,9.216l5.968,24.08l35.152-8.704l3.424,13.84l-35.152,8.704l6.784,27.408l39.296-9.744l3.456,13.968l-56.336,13.952
	l-23.12-93.296L257.952,209.984z M134.128,240.656l34,34.048c8.8,8.832,16.88,18.304,23.68,27.328l0.272-0.064
	c-4.192-12.176-7.584-24.112-11.12-38.368l-8.064-32.544l15.776-3.904l23.12,93.296l-17.6,4.352l-34.512-34.944
	c-8.496-8.768-17.568-18.72-24.736-28.112L134.56,262c3.664,11.872,6.864,24.144,10.672,39.52l8.272,33.36l-15.648,3.872
	l-23.12-93.296L134.128,240.656z"/>
<path d="M70.64,306.912l-35.68,75.824l88.128,10.112l5.104,86.656l82.304-38.992L264.368,512l48.064-72.208l75.744,36.832
	l6.56-89.552l88.128-2.16l-32.768-74.384L512,257.088l-67.728-54.88l42.976-73.664l-91.04-7.216l-7.28-89.552l-77.2,36.832
	L258.544,0l-49.52,70.048L129.632,28.16l-4.368,91.712l-90.304,4.336l34.224,86.656L0,253.472L70.64,306.912z M98.896,220.752
	l-7.392-18.704L69.6,146.576l56.816-2.72l21.792-1.04l1.04-21.792l2.576-54.016L197.84,91.28l18.64,9.824l12.16-17.2l30.816-43.584
	l33.312,42.976l11.84,15.28l17.456-8.32l45.776-21.84l4.464,54.832l1.664,20.368l20.368,1.616l52.96,4.208l-23.728,40.656
	L413.2,207.872l16,12.96l45.44,36.816l-40.192,34.688l-13.44,11.6l7.152,16.24l18.32,41.584l-52.304,1.28l-21.76,0.528
	l-1.584,21.712l-3.968,54.224L322.96,418.16l-18.864-9.168l-11.616,17.456l-29.312,44.032l-33.52-44.448l-11.776-15.616
	l-17.664,8.368l-50.16,23.76l-3.008-51.104l-1.184-20.128l-20.032-2.304l-54.912-6.304l21.44-45.568l8.288-17.616l-15.52-11.744
	l-42.656-32.272l39.296-24.208L98.896,220.752z"/>
<g>
	<path style="fill:#ED1C24;" d="M153.504,334.88l-8.272-33.36c-3.808-15.36-7.008-27.648-10.672-39.52l0.384-0.256
		c7.168,9.392,16.256,19.344,24.736,28.112l34.512,34.944l17.584-4.352l-23.12-93.296l-15.776,3.904l8.064,32.544
		c3.536,14.256,6.928,26.192,11.12,38.368l-0.272,0.064c-6.8-9.04-14.864-18.496-23.68-27.328l-34-34.048l-19.376,4.8l23.12,93.296
		L153.504,334.88z"/>
	<polygon style="fill:#ED1C24;" points="283.136,302.768 279.68,288.784 240.368,298.528 233.584,271.12 268.736,262.416 
		265.312,248.56 230.16,257.28 224.192,233.184 261.408,223.968 257.952,209.984 203.696,223.424 226.8,316.72 	"/>
	<path style="fill:#ED1C24;" d="M334.64,290l-0.08-46.56c0.128-11.344-0.304-20.784-1.104-31.168l0.272-0.064
		c3.6,9.824,7.472,18.272,12.464,28.352l20.544,41.472l18.272-4.528L386.944,178l-17.296,4.288l0.768,44.624
		c0.32,11.968,0.752,23.184,1.632,33.84l-0.288,0.064c-3.888-9.76-8.4-19.664-13.504-30.144l-19.904-40.624l-17.872,4.432
		l0.368,44.72c0.272,12.416,0.4,24.144,1.312,34.352l-0.288,0.064c-3.824-8.896-8.976-20.256-14.144-31.024l-19.36-40.16
		l-18.128,4.496l45.968,87.648L334.64,290z"/>
</g>
<g>
</g>
<g>
</g>
<g>
</g>
<g>
</g>
<g>
</g>
<g>
</g>
<g>
</g>
<g>
</g>
<g>
</g>
<g>
</g>
<g>
</g>
<g>
</g>
<g>
</g>
<g>
</g>
<g>
</g>
</svg>
