<?xml version="1.0" encoding="iso-8859-1"?>
<!-- Generator: Adobe Illustrator 19.0.0, SVG Export Plug-In . SVG Version: 6.00 Build 0)  -->
<svg version="1.1" id="Layer_1" xmlns="http://www.w3.org/2000/svg" xmlns:xlink="http://www.w3.org/1999/xlink" x="0px" y="0px"
	 viewBox="0 0 512 512" style="enable-background:new 0 0 512 512;" xml:space="preserve">
<rect x="112.073" y="196.071" style="fill:#C5FFCA;" width="287.664" height="167.806"/>
<g>
	<rect x="112.073" y="307.934" style="fill:#F2BF7E;" width="287.664" height="55.932"/>
	<rect x="39.429" y="76.212" style="fill:#F2BF7E;" width="40.683" height="359.575"/>
</g>
<rect x="39.429" y="76.212" style="fill:#AA603B;" width="16.71" height="359.575"/>
<rect x="430.972" y="76.212" style="fill:#F2BF7E;" width="40.683" height="359.575"/>
<rect x="430.972" y="76.212" style="fill:#AA603B;" width="16.71" height="359.575"/>
<path d="M480.252,443.658h-56.421V68.342h56.421V443.658z M439.569,427.921h24.945V84.079h-24.945V427.921z"/>
<rect x="487.869" y="105.275" width="24.131" height="15.738"/>
<path d="M87.981,443.658H31.56V68.342h56.421V443.658z M47.298,427.921h24.945V84.079H47.298V427.921z"/>
<rect y="105.275" width="24.131" height="15.738"/>
<polygon style="fill:#B3B3B3;" points="119.607,105.28 111.213,105.28 111.213,96.887 95.475,96.887 95.475,128.362 
	111.213,128.362 111.213,121.018 119.607,121.018 "/>
<rect x="128" y="105.275" width="256" height="15.738"/>
<polygon style="fill:#B3B3B3;" points="398.689,96.887 398.689,105.28 392.393,105.28 392.393,121.018 398.689,121.018 
	398.689,128.362 414.426,128.362 414.426,96.887 "/>
<polygon points="407.607,371.742 104.206,371.742 104.206,188.202 160.019,188.202 160.019,203.94 119.943,203.94 119.943,356.005 
	391.869,356.005 391.869,203.94 343.804,203.94 343.804,188.202 407.607,188.202 "/>
<g>
	<rect x="166.82" y="97.93" style="fill:#B3B3B3;" width="15.738" height="31.475"/>
	<rect x="318.951" y="97.93" style="fill:#B3B3B3;" width="15.738" height="31.475"/>
	<rect x="166.82" y="185.012" style="fill:#B3B3B3;" width="15.738" height="32.525"/>
	<rect x="318.951" y="185.012" style="fill:#B3B3B3;" width="15.738" height="32.525"/>
</g>
<rect x="192" y="193.406" width="120.656" height="15.738"/>
<rect x="318.951" y="137.799" width="15.738" height="15.738"/>
<rect x="318.951" y="160.881" width="15.738" height="15.738"/>
<rect x="166.82" y="137.799" width="15.738" height="15.738"/>
<rect x="166.82" y="160.881" width="15.738" height="15.738"/>
<path d="M177.728,275.356c3.051,1.564,7.745,3.129,12.587,3.129c5.217,0,7.975-2.158,7.975-5.439c0-3.129-2.384-4.916-8.42-7.078
	c-8.345-2.903-13.781-7.523-13.781-14.823c0-8.568,7.151-15.123,18.993-15.123c5.666,0,9.836,1.19,12.817,2.532l-2.536,9.166
	c-2.009-0.972-5.587-2.388-10.503-2.388c-4.916,0-7.3,2.236-7.3,4.846c0,3.203,2.833,4.615,9.314,7.078
	c8.865,3.278,13.035,7.893,13.035,14.971c0,8.42-6.481,15.572-20.262,15.572c-5.739,0-11.4-1.491-14.229-3.055L177.728,275.356z"/>
<path d="M229.277,274.167l-3.578,12.887h-11.768l15.345-50.211h14.9l15.568,50.211H247.53l-3.875-12.887H229.277z M242.017,265.672
	l-3.129-10.651c-0.894-2.981-1.787-6.707-2.532-9.688h-0.148c-0.745,2.981-1.491,6.781-2.309,9.688l-2.981,10.651H242.017z"/>
<path d="M266.445,236.843h11.4v40.675h19.965v9.536h-31.365V236.843z"/>
<path d="M334.388,265.82h-18.474v11.92h20.636v9.314h-32.037v-50.211h30.991v9.314h-19.59v10.429h18.474V265.82z"/>
<g>
	<rect x="135.344" y="329.81" style="fill:#FFFFFF;" width="79.738" height="15.738"/>
	<rect x="312.656" y="329.81" style="fill:#FFFFFF;" width="15.738" height="15.738"/>
	<rect x="335.738" y="329.81" style="fill:#FFFFFF;" width="15.738" height="15.738"/>
	<rect x="360.918" y="329.81" style="fill:#FFFFFF;" width="15.738" height="15.738"/>
</g>
<g>
</g>
<g>
</g>
<g>
</g>
<g>
</g>
<g>
</g>
<g>
</g>
<g>
</g>
<g>
</g>
<g>
</g>
<g>
</g>
<g>
</g>
<g>
</g>
<g>
</g>
<g>
</g>
<g>
</g>
</svg>
