<?xml version="1.0" encoding="iso-8859-1"?>
<!-- Generator: Adobe Illustrator 19.0.0, SVG Export Plug-In . SVG Version: 6.00 Build 0)  -->
<svg version="1.1" id="Layer_1" xmlns="http://www.w3.org/2000/svg" xmlns:xlink="http://www.w3.org/1999/xlink" x="0px" y="0px"
	 viewBox="0 0 512 512" style="enable-background:new 0 0 512 512;" xml:space="preserve">
<g>
	<path style="fill:#BDC3C7;" d="M65.085,130.169h-8.678c-4.79,0-8.678-3.879-8.678-8.678s3.888-8.678,8.678-8.678h8.678
		c4.79,0,8.678,3.879,8.678,8.678S69.875,130.169,65.085,130.169"/>
	<path style="fill:#BDC3C7;" d="M65.085,164.881h-8.678c-4.79,0-8.678-3.879-8.678-8.678c0-4.799,3.888-8.678,8.678-8.678h8.678
		c4.79,0,8.678,3.879,8.678,8.678C73.763,161.002,69.875,164.881,65.085,164.881"/>
	<path style="fill:#BDC3C7;" d="M65.085,86.78h-8.678c-4.79,0-8.678-3.879-8.678-8.678s3.888-8.678,8.678-8.678h8.678
		c4.79,0,8.678,3.879,8.678,8.678S69.875,86.78,65.085,86.78"/>
</g>
<path style="fill:#485762;" d="M212.61,381.831c0-64.165,49.785-116.588,112.814-121.049V52.068
	c0-19.17-15.542-34.712-34.712-34.712H99.797c-19.17,0-34.712,15.542-34.712,34.712V468.61c0,19.17,15.542,34.712,34.712,34.712
	h190.915c5.363,0,10.388-1.319,14.917-3.489C252.295,486.999,212.61,439.105,212.61,381.831"/>
<path style="fill:#ECF1F1;" d="M325.424,69.424H65.085V34.712C65.085,15.542,80.627,0,99.797,0h190.915
	c19.17,0,34.712,15.542,34.712,34.712V69.424z"/>
<g>
	<path style="fill:#BDC3C7;" d="M212.61,43.39h-34.712c-4.79,0-8.678-3.879-8.678-8.678s3.888-8.678,8.678-8.678h34.712
		c4.79,0,8.678,3.879,8.678,8.678S217.4,43.39,212.61,43.39"/>
	<path style="fill:#BDC3C7;" d="M151.864,34.712c0,4.79-3.888,8.678-8.678,8.678s-8.678-3.888-8.678-8.678s3.888-8.678,8.678-8.678
		S151.864,29.922,151.864,34.712"/>
</g>
<path style="fill:#ECF1F1;" d="M217.704,416.542H65.085v52.068c0,19.17,15.534,34.712,34.712,34.712h190.915
	c5.363,0,10.379-1.319,14.917-3.489C263.532,489.706,229.992,457.763,217.704,416.542"/>
<polygon style="fill:#8697CB;" points="108.475,173.559 282.034,173.559 282.034,112.814 108.475,112.814 "/>
<path style="fill:#F0C419;" d="M169.22,216.949h-60.746c-4.79,0-8.678-3.879-8.678-8.678c0-4.799,3.888-8.678,8.678-8.678h60.746
	c4.79,0,8.678,3.879,8.678,8.678C177.898,213.07,174.011,216.949,169.22,216.949"/>
<path style="fill:#4FBA6F;" d="M282.034,216.949h-78.102c-4.79,0-8.678-3.879-8.678-8.678c0-4.799,3.888-8.678,8.678-8.678h78.102
	c4.79,0,8.678,3.879,8.678,8.678C290.712,213.07,286.824,216.949,282.034,216.949"/>
<path style="fill:#F0C419;" d="M282.034,251.661h-17.356c-4.79,0-8.678-3.879-8.678-8.678c0-4.799,3.888-8.678,8.678-8.678h17.356
	c4.79,0,8.678,3.879,8.678,8.678C290.712,247.782,286.824,251.661,282.034,251.661"/>
<path style="fill:#8697CB;" d="M229.966,251.661h-69.424c-4.79,0-8.678-3.879-8.678-8.678c0-4.799,3.888-8.678,8.678-8.678h69.424
	c4.79,0,8.678,3.879,8.678,8.678C238.644,247.782,234.756,251.661,229.966,251.661"/>
<path style="fill:#4FBA6F;" d="M151.864,286.373h-43.39c-4.79,0-8.678-3.879-8.678-8.678s3.888-8.678,8.678-8.678h43.39
	c4.79,0,8.678,3.879,8.678,8.678S156.655,286.373,151.864,286.373"/>
<path style="fill:#E64C3C;" d="M125.831,251.661h-17.356c-4.79,0-8.678-3.879-8.678-8.678c0-4.799,3.888-8.678,8.678-8.678h17.356
	c4.79,0,8.678,3.879,8.678,8.678C134.508,247.782,130.621,251.661,125.831,251.661"/>
<path style="fill:#8697CB;" d="M169.22,321.085h-60.746c-4.79,0-8.678-3.879-8.678-8.678c0-4.799,3.888-8.678,8.678-8.678h60.746
	c4.79,0,8.678,3.879,8.678,8.678C177.898,317.206,174.011,321.085,169.22,321.085"/>
<g>
	<path style="fill:#F0C419;" d="M234.435,321.085h-30.503c-4.79,0-8.678-3.879-8.678-8.678c0-4.799,3.888-8.678,8.678-8.678h30.503
		c4.79,0,8.678,3.879,8.678,8.678C243.113,317.206,239.225,321.085,234.435,321.085"/>
	<path style="fill:#F0C419;" d="M169.22,390.508h-60.746c-4.79,0-8.678-3.879-8.678-8.678s3.888-8.678,8.678-8.678h60.746
		c4.79,0,8.678,3.879,8.678,8.678S174.011,390.508,169.22,390.508"/>
</g>
<path style="fill:#E64C3C;" d="M217.652,355.797h-57.11c-4.79,0-8.678-3.879-8.678-8.678c0-4.799,3.888-8.678,8.678-8.678h57.11
	c4.79,0,8.678,3.879,8.678,8.678C226.33,351.918,222.442,355.797,217.652,355.797"/>
<path style="fill:#4FBA6F;" d="M125.831,355.797h-17.356c-4.79,0-8.678-3.879-8.678-8.678c0-4.799,3.888-8.678,8.678-8.678h17.356
	c4.79,0,8.678,3.879,8.678,8.678C134.508,351.918,130.621,355.797,125.831,355.797"/>
<path style="fill:#E64C3C;" d="M271.49,286.373h-84.914c-4.79,0-8.678-3.879-8.678-8.678s3.888-8.678,8.678-8.678h84.914
	c4.79,0,8.678,3.879,8.678,8.678S276.28,286.373,271.49,286.373"/>
<path style="fill:#BDC3C7;" d="M212.61,459.932c0,9.589-7.767,17.356-17.356,17.356c-9.589,0-17.356-7.767-17.356-17.356
	c0-9.589,7.767-17.356,17.356-17.356C204.843,442.576,212.61,450.343,212.61,459.932"/>
<path style="fill:#8697CB;" d="M455.593,381.831c0,67.098-54.394,121.492-121.492,121.492S212.61,448.929,212.61,381.831
	s54.393-121.492,121.492-121.492S455.593,314.732,455.593,381.831"/>
<g>
	<path style="fill:#556080;" d="M334.102,269.017c-62.204,0-112.814,50.61-112.814,112.814s50.61,112.814,112.814,112.814
		s112.814-50.61,112.814-112.814S396.305,269.017,334.102,269.017 M334.102,512c-71.775,0-130.169-58.394-130.169-130.169
		s58.394-130.169,130.169-130.169s130.169,58.394,130.169,130.169S405.877,512,334.102,512"/>
	<path style="fill:#556080;" d="M325.424,512c-34.634,0-60.746-55.956-60.746-130.169s26.112-130.169,60.746-130.169
		c4.79,0,8.678,3.879,8.678,8.678s-3.888,8.678-8.678,8.678c-20.523,0-43.39,46.332-43.39,112.814s22.866,112.814,43.39,112.814
		c4.79,0,8.678,3.879,8.678,8.678C334.102,508.121,330.214,512,325.424,512"/>
	<path style="fill:#556080;" d="M455.593,390.508H212.61c-4.79,0-8.678-3.879-8.678-8.678s3.888-8.678,8.678-8.678h242.983
		c4.799,0,8.678,3.879,8.678,8.678S460.392,390.508,455.593,390.508"/>
	<path style="fill:#556080;" d="M334.102,512c-4.79,0-8.678-3.879-8.678-8.678V260.339c0-4.799,3.888-8.678,8.678-8.678
		s8.678,3.879,8.678,8.678v242.983C342.78,508.121,338.892,512,334.102,512"/>
	<path style="fill:#556080;" d="M342.78,512c-4.79,0-8.678-3.879-8.678-8.678c0-4.799,3.888-8.678,8.678-8.678
		c20.523,0,43.39-46.332,43.39-112.814s-22.866-112.814-43.39-112.814c-4.79,0-8.678-3.879-8.678-8.678s3.888-8.678,8.678-8.678
		c34.625,0,60.746,55.956,60.746,130.169S377.405,512,342.78,512"/>
</g>
<g>
</g>
<g>
</g>
<g>
</g>
<g>
</g>
<g>
</g>
<g>
</g>
<g>
</g>
<g>
</g>
<g>
</g>
<g>
</g>
<g>
</g>
<g>
</g>
<g>
</g>
<g>
</g>
<g>
</g>
</svg>
